<svg xmlns="http://www.w3.org/2000/svg" viewBox="320.5 321.7300109863281 148.96292114257812 142.28985595703125"><path d="M452.981 337.854C453.969 337.345 454.927 336.611 455.974 335.997C456.992 335.398 458.1 334.934 459.222 334.365C459.641 334.979 459.521 335.683 458.803 336.371C457.651 337.479 456.528 338.617 455.406 339.77C455.136 340.039 454.972 340.414 454.717 340.803C456.094 341.836 456.379 340.384 457.396 339.845C457.306 340.638 457.441 341.402 457.112 341.821C455.93 343.378 454.568 344.8 454.852 347.001C454.882 347.241 454.613 347.555 454.418 347.765C451.889 350.639 449.569 353.709 447.04 356.598C444.346 359.682 441.487 362.647 439.198 366.105C437.447 368.755 435.142 371.046 433.166 373.561C432.493 374.414 432.179 375.522 431.535 376.39C430.158 378.292 428.781 380.223 427.225 381.96C425.309 384.101 423.693 386.421 422.151 388.832C421.268 390.209 420.086 391.392 419.098 392.709C416.06 396.782 412.947 400.809 410.074 405.001C408.368 407.501 406.542 409.927 404.866 412.442C402.591 415.87 400.316 419.314 398.026 422.742C395.841 426.006 393.507 429.165 391.501 432.534C389.196 436.397 386.473 439.975 384.303 443.957C382.147 447.91 379.334 451.413 374.829 453.015C373.063 453.644 371.417 454.662 369.411 453.464C368.409 452.865 367.137 452.611 365.865 452.76C364.667 452.895 363.739 452.266 362.871 451.488C361.016 449.811 358.696 446.008 357.394 443.194C356.436 441.128 355.329 438.972 353.742 437.37C351.602 435.214 350.046 432.639 348.729 430.093C346.768 426.291 343.909 423.177 341.799 419.524C340.243 416.844 338.462 414.298 336.95 411.589C335.529 409.043 333.927 406.633 332.311 404.223C331.263 402.666 330.47 400.974 330.56 398.429C331.727 399.956 332.565 401.034 333.837 402.71C333.149 398.968 331.233 396.467 330.5 393.473C330.919 393.263 331.368 393.069 331.907 392.799C331.622 392.17 331.338 391.557 331.039 390.913C331.323 390.838 331.578 390.703 331.622 390.763C332.82 392.185 334.002 393.638 335.274 395.195C335.693 393.757 336.067 392.47 336.516 390.883C337.654 391.632 338.522 392.305 339.495 392.799C339.899 393.009 340.497 392.859 341.38 392.874C342.173 394.012 343.79 394.94 344.733 396.677C345.646 398.369 347.097 399.851 348.534 401.168C349.851 402.381 350.255 404.148 351.767 405.316C353.158 406.408 353.503 408.834 354.88 409.957C356.331 411.154 357.05 412.711 358.127 414.089C359.294 415.586 360.222 417.263 361.27 418.865C362.258 420.377 363.29 421.859 364.263 423.401C365.281 425.003 366.239 426.635 367.211 428.267C368.124 429.809 369.022 431.366 370.025 433.088C370.534 432.714 371.192 432.459 371.447 431.98C374.874 425.767 379.064 420.018 382.686 413.924C385.515 409.163 388.703 404.537 392.279 400.255C393.177 399.192 393.746 397.86 394.569 396.737C397.173 393.218 399.882 389.76 402.471 386.227C403.833 384.37 405 382.349 406.347 380.478C407.724 378.576 409.176 376.72 410.643 374.893C413.262 371.6 416.105 368.441 418.5 364.997C420.46 362.182 423.139 360.131 425.339 357.601C426.566 356.194 427.824 354.816 428.946 353.319C429.799 352.166 430.233 350.834 431.595 349.936C432.822 349.127 433.57 347.6 434.603 346.432C436.758 344.007 438.943 341.596 441.173 339.231C443.643 336.611 446.381 334.335 449.749 332.913C450.347 332.658 450.841 332.134 451.395 331.73C452.338 332.569 449.689 333.647 451.769 334.126C450.931 335.623 449.389 336.237 448.701 338.288C449.809 337.764 450.168 337.18 450.677 336.791C451.305 337.794 451.979 337.479 452.802 336.701C452.862 337.255 452.892 337.659 452.921 337.899C450.527 340.129 448.312 342.345 446.082 344.576C446.336 345.863 444.062 346.133 444.855 347.989C447.653 344.77 450.272 341.746 452.892 338.707C452.996 338.587 452.892 338.303 452.921 337.913L452.981 337.854Z" fill="#dbfc3b"></path></svg>