<svg xmlns="http://www.w3.org/2000/svg" viewBox="1226.75 243.36900329589844 101.7044677734375 110.44715881347656"><path d="M1309.28 253.444C1308.81 254.477 1308.5 255.18 1308.11 256.064C1308.93 255.675 1309.5 255.151 1310.07 255.165C1310.97 255.21 1311.28 254.537 1311.88 254.207C1312.45 253.893 1313.17 253.833 1313.82 253.668C1314.47 254.312 1313.82 254.881 1313.63 255.764C1314.78 255.225 1315.77 254.761 1316.73 254.297C1316.9 255.165 1316.66 256.149 1316.01 257.247C1316.82 258.28 1317.51 256.917 1318.34 257.082C1318.34 258.774 1317.28 259.897 1316.02 261.498C1316.94 261.184 1317.3 261.064 1318.1 260.795C1317.46 262.771 1317.09 264.538 1315.99 265.96C1315.2 267.008 1314.68 268.161 1314.06 269.284C1313.38 270.556 1312.58 271.769 1311.62 272.892C1307.97 277.204 1304.02 281.231 1300.21 285.393C1298.22 287.564 1296.03 289.555 1294.17 291.846C1292.57 293.837 1290.81 295.664 1289 297.43C1288.32 298.089 1288.34 298.793 1288.49 299.556C1288.85 299.751 1289.24 299.856 1289.49 300.11C1292 302.431 1294.5 304.781 1297 307.132C1299.38 309.363 1301.64 311.758 1304.2 313.764C1306.75 315.74 1309.01 318.001 1311.1 320.367C1313.59 323.151 1315.88 326.131 1317.54 329.544C1317.93 330.338 1317.97 330.952 1317.82 331.895C1317.37 331.655 1317.04 331.491 1316.68 331.296C1316.64 331.446 1316.46 331.73 1316.53 331.865C1316.86 332.464 1317.28 333.003 1317.63 333.587C1318.16 334.5 1318.82 335.398 1318.21 336.656C1317.73 336.431 1317.27 336.222 1316.79 335.997C1316.71 336.192 1316.59 336.341 1316.62 336.416C1316.95 337.165 1317.31 337.898 1317.64 338.587C1316.89 339.096 1316.32 339.47 1315.7 339.89C1314.71 338.363 1312.81 338.737 1311 337.719C1311.58 338.662 1311.91 339.171 1312.24 339.695C1310.52 338.482 1308.38 338.422 1306.73 337.24C1305.14 336.102 1303.39 335.159 1301.73 334.126C1301.54 334.006 1301.39 333.781 1301.21 333.617C1298.02 330.592 1294.86 327.538 1291.65 324.544C1289.52 322.568 1287.39 320.591 1285.05 318.855C1284.27 318.286 1283.67 317.507 1282.98 316.818C1281.03 314.872 1279.1 312.941 1277.13 310.965C1275.62 311.728 1275.02 313.345 1273.91 314.498C1271.65 316.863 1269.36 319.184 1267.25 321.684C1265.26 324.02 1263.39 326.43 1261.25 328.646C1259.69 330.278 1258.62 332.449 1256.88 333.781C1254.95 335.263 1253.57 337.374 1251.37 338.512C1250.89 338.767 1250.56 339.291 1250.16 339.68C1248.88 340.948 1247.29 341.841 1245.37 342.36C1244.86 342.495 1244.38 342.764 1243.87 342.824C1243.13 342.899 1242.99 344.067 1242.11 343.767C1241.54 343.573 1241.02 343.303 1240.43 343.049C1240.3 342.345 1241.49 341.776 1240.6 340.803C1239.85 341.342 1239.08 341.896 1238.04 342.659C1238.41 341.252 1238.68 340.219 1238.95 339.171C1238.37 339.276 1237.75 339.366 1236.75 339.53C1237.62 338.123 1238.44 337.045 1237.86 335.668C1237.57 335.578 1237.29 335.473 1236.96 335.353C1237.05 335.084 1237.09 334.859 1237.2 334.665C1238.17 332.883 1238.92 331.011 1239.92 329.245C1240.69 327.912 1241.42 326.58 1242.5 325.457C1243.02 324.903 1243.39 324.199 1243.89 323.616C1245.92 321.22 1248.05 318.899 1250.04 316.459C1251.99 314.079 1254.01 311.788 1256.01 309.467C1257.75 307.461 1259.32 305.29 1261.17 303.389C1262.16 302.386 1263.02 301.248 1263.93 300.17C1264.35 299.676 1264.41 299.107 1263.91 298.703C1262.94 297.924 1262.34 296.771 1261.07 296.218C1260.17 295.813 1259.56 294.81 1258.81 294.062C1257.49 292.744 1256.1 291.516 1254.89 290.109C1253.02 287.938 1251.1 285.812 1249.05 283.806C1248.36 283.132 1248.15 282.129 1247.06 281.665C1246.31 281.351 1245.88 280.303 1245.3 279.584C1243.53 277.458 1241.72 275.392 1240.34 272.922C1239.52 271.44 1238.94 269.957 1238.35 268.4C1238.01 267.502 1238.17 266.739 1237.98 265.99C1238.74 265.226 1239.5 264.598 1240.1 263.834C1240.87 262.861 1242.03 262.606 1242.99 261.993C1243.29 261.813 1243.89 261.933 1244.28 262.097C1245.79 262.741 1247.23 263.594 1248.78 264.089C1250.32 264.583 1251.37 265.705 1252.58 266.574C1254.38 267.861 1255.94 269.478 1257.55 270.975C1260.19 273.416 1262.67 276.036 1265.45 278.282C1267.19 279.689 1268.7 281.306 1270.35 282.788C1271.28 283.611 1272.55 284.225 1273.13 285.243C1273.64 286.142 1274.37 286.501 1275.03 286.95C1275.39 286.8 1275.93 286.756 1276.05 286.501C1276.98 284.495 1279.12 283.552 1280.17 281.665C1280.32 281.396 1280.5 281.141 1280.7 280.917C1283.44 278.012 1286.26 275.182 1288.91 272.188C1292.66 267.921 1296.72 263.954 1300.71 259.926C1301.99 257.591 1304.4 256.498 1306.31 254.881C1307.06 254.237 1308.11 253.953 1309.3 253.369L1309.28 253.444Z" fill="#dbfc3b"></path></svg>